<svg id="Laag_1" data-name="Laag 1" xmlns="http://www.w3.org/2000/svg" width="175.46mm" height="31.02mm"
     viewBox="0 0 497.37 87.94">
    <defs>
        <style>.cls-1{fill:#fff;}.cls-2{fill:#111329;}.cls-3{fill:#1ca883;}</style>
    </defs>
    <path class="cls-1"
          d="M78.07,80.56c0,4.6-2.61,7.38-6.94,7.38s-6.95-2.78-6.95-7.38,2.61-7.38,6.95-7.38S78.07,76,78.07,80.56Zm-11.59,0c0,3.38,1.75,5.42,4.65,5.42s4.65-2,4.65-5.42S74,75.14,71.13,75.14,66.48,77.18,66.48,80.56Z"/>
    <path class="cls-1"
          d="M95.09,78.57v9.09H92.8V79.37c0-3.15-1.55-4.2-3.53-4.2s-4.45,1.3-4.45,4.93v7.56h-2.3V73.46h2l.14,2.22a5.23,5.23,0,0,1,4.83-2.5C92.57,73.18,95.09,74.91,95.09,78.57Z"/>
    <path class="cls-1"
          d="M113,66.93V87.66h-2l-.14-2.47A5.39,5.39,0,0,1,106,87.94c-4,0-6.54-2.75-6.54-7.38S102,73.18,106,73.18a5.44,5.44,0,0,1,4.77,2.5V66.93Zm-2.29,13.8v-.34c0-3.21-1.78-5.22-4.51-5.22s-4.51,2.1-4.51,5.39,1.7,5.39,4.51,5.39S110.74,83.94,110.74,80.73Z"/>
    <path class="cls-1"
          d="M130.57,81.41H119.75c.28,2.87,2,4.54,4.68,4.54,2.09,0,3.53-.74,4-2.1l1.93,1c-1.09,1.92-2.87,3.09-6,3.09-4.34,0-7-2.78-7-7.38s2.44-7.38,6.77-7.38c4.17,0,6.43,3,6.43,6.64A10.85,10.85,0,0,1,130.57,81.41Zm-10.79-2h8.69c-.31-2.61-1.78-4.22-4.22-4.22S120.12,76.73,119.78,79.39Z"/>
    <path class="cls-1"
          d="M143.4,73.46l-.46,2.22a3.94,3.94,0,0,0-1.81-.37c-1.72,0-3.79,1.5-3.79,4.68v7.67H135V73.46h1.87l.32,2.33c.8-1.73,2.35-2.61,4.59-2.61A3.67,3.67,0,0,1,143.4,73.46Z"/>
    <path class="cls-1"
          d="M159,66.93V87.66h-2l-.14-2.47A5.39,5.39,0,0,1,152,87.94c-4,0-6.54-2.75-6.54-7.38S148,73.18,152,73.18a5.44,5.44,0,0,1,4.77,2.5V66.93Zm-2.29,13.8v-.34c0-3.21-1.78-5.22-4.51-5.22s-4.51,2.1-4.51,5.39,1.7,5.39,4.51,5.39S156.75,83.94,156.75,80.73Z"/>
    <path class="cls-1"
          d="M176.58,81.41H165.76c.28,2.87,2,4.54,4.68,4.54,2.09,0,3.53-.74,4-2.1l1.93,1c-1.09,1.92-2.87,3.09-6,3.09-4.34,0-6.95-2.78-6.95-7.38s2.44-7.38,6.77-7.38c4.17,0,6.43,3,6.43,6.64A10.85,10.85,0,0,1,176.58,81.41Zm-10.79-2h8.69c-.31-2.61-1.78-4.22-4.22-4.22S166.13,76.73,165.79,79.39Z"/>
    <path class="cls-1"
          d="M193.25,81.41H182.43c.29,2.87,2,4.54,4.68,4.54,2.1,0,3.53-.74,4-2.1l1.92,1c-1.09,1.92-2.87,3.09-6,3.09-4.33,0-7-2.78-7-7.38s2.44-7.38,6.78-7.38c4.16,0,6.43,3,6.43,6.64A10.65,10.65,0,0,1,193.25,81.41Zm-10.79-2h8.7c-.32-2.61-1.78-4.22-4.22-4.22S182.81,76.73,182.46,79.39Z"/>
    <path class="cls-1"
          d="M199.91,83.85c0,1.45.37,1.9,1.55,1.9a5.22,5.22,0,0,0,2.1-.39l-.38,2.18a5.52,5.52,0,0,1-2.12.4c-2.33,0-3.44-1.22-3.44-3.81V66.93h2.29Z"/>
    <path class="cls-1" d="M226.49,73.46l-6,14.2h-2.3l-6-14.2h2.62l4.53,11.9,4.68-11.9Z"/>
    <path class="cls-1"
          d="M242.05,85.87l-.14,1.79a5.41,5.41,0,0,1-1.73.28,2.25,2.25,0,0,1-2.58-2.1,5.68,5.68,0,0,1-4.62,2.1c-2.7,0-4.88-1.25-4.88-3.81,0-2.12,1.89-3.8,5.6-4.42l3.81-.63v-.79c0-1.88-1.2-3.12-3.36-3.12a4.2,4.2,0,0,0-4.1,2.69l-1.69-1.22c.74-2.1,3-3.46,5.79-3.46,3.28,0,5.66,1.53,5.66,4.82v7c0,.68.29,1,1.09,1A5.48,5.48,0,0,0,242.05,85.87Zm-4.54-3v-2l-3.21.59c-2.53.46-3.82,1.28-3.82,2.61s1,1.82,2.61,1.82C235.39,86,237.51,84.76,237.51,82.89Z"/>
    <path class="cls-1"
          d="M258,78.57v9.09h-2.3V79.37c0-3.15-1.55-4.2-3.53-4.2s-4.45,1.3-4.45,4.93v7.56h-2.29V73.46h2l.14,2.22a5.2,5.2,0,0,1,4.82-2.5C255.42,73.18,258,74.91,258,78.57Z"/>
    <path class="cls-1"
          d="M273.36,68.92h6.75c4.47,0,6.46,2,6.46,5.17a4,4,0,0,1-3.19,4v0a4.33,4.33,0,0,1,3.67,4.25c0,3.18-2.49,5.26-7,5.26h-6.72Zm6.78,8.23c2.69,0,4-1,4-3.06s-1.32-3-4-3h-4.48v6.1Zm.48,8.38c2.7,0,4-1.14,4-3.13s-1.32-3.12-4-3.12h-5v6.25Z"/>
    <path class="cls-1"
          d="M304.59,85.87l-.14,1.79a5.41,5.41,0,0,1-1.73.28,2.25,2.25,0,0,1-2.58-2.1,5.68,5.68,0,0,1-4.62,2.1c-2.7,0-4.88-1.25-4.88-3.81,0-2.12,1.89-3.8,5.6-4.42l3.81-.63v-.79c0-1.88-1.2-3.12-3.35-3.12a4.21,4.21,0,0,0-4.11,2.69l-1.69-1.22c.74-2.1,3-3.46,5.8-3.46,3.27,0,5.65,1.53,5.65,4.82v7c0,.68.29,1,1.09,1A5.4,5.4,0,0,0,304.59,85.87Zm-4.54-3v-2l-3.21.59C294.31,82,293,82.8,293,84.13S294,86,295.63,86C297.93,86,300.05,84.76,300.05,82.89Z"/>
    <path class="cls-1"
          d="M316.27,73.46l-.46,2.22a3.94,3.94,0,0,0-1.81-.37c-1.72,0-3.79,1.5-3.79,4.68v7.67h-2.29V73.46h1.86l.32,2.33c.8-1.73,2.35-2.61,4.59-2.61A3.67,3.67,0,0,1,316.27,73.46Z"/>
    <path class="cls-1"
          d="M327.55,86.66a5.36,5.36,0,0,1-3.7,1.28c-2.13,0-4-1-4-3.81V75.42H317v-2h2.87v-3.4l2.29-.63v4h5.31v2h-5.31v8.32a1.94,1.94,0,0,0,2.16,2.07,3.3,3.3,0,0,0,2.44-1Z"/>
    <path class="cls-1" d="M330.22,69a1.72,1.72,0,1,1,1.72,1.71A1.62,1.62,0,0,1,330.22,69Zm2.87,18.63h-2.3V73.46h2.3Z"/>
    <path class="cls-1"
          d="M360.59,78.57v9.09h-2.3V78.8c0-2.58-1.49-3.63-3.39-3.63-2.24,0-4.25,1.67-4.25,4.71v7.78h-2.29V78.8c0-2.58-1.49-3.63-3.39-3.63s-4.25,1.39-4.25,4.91v7.58h-2.29V73.46h2l.14,2.22a5.18,5.18,0,0,1,4.59-2.5A5.33,5.33,0,0,1,350.11,76c.89-1.93,3.19-2.78,5-2.78C357.86,73.18,360.59,74.83,360.59,78.57Z"/>
    <path class="cls-1"
          d="M378,81.41H367.16c.28,2.87,2,4.54,4.68,4.54,2.09,0,3.53-.74,4-2.1l1.93,1c-1.09,1.92-2.87,3.09-6,3.09-4.34,0-6.95-2.78-6.95-7.38s2.44-7.38,6.77-7.38c4.17,0,6.43,3,6.43,6.64A10.85,10.85,0,0,1,378,81.41Zm-10.79-2h8.69c-.31-2.61-1.78-4.22-4.22-4.22S367.53,76.73,367.19,79.39ZM372,71.11h-1.87l2.18-4.74h2.5Z"/>
    <path class="cls-1"
          d="M394.89,73.46v14.2h-2l-.15-2.16c-1,1.7-2.84,2.44-5.14,2.44-2.84,0-5.28-1.45-5.28-5.2V73.46h2.3v8.69c0,2.92,1.32,3.8,3.39,3.8,2.44,0,4.59-1.42,4.59-4.77V73.46Z"/>
    <path class="cls-1"
          d="M398.93,84.73l1.87-1.28c.68,1.74,2.46,2.5,4.53,2.5,2.35,0,3.47-.93,3.47-2.1s-.89-1.67-3.76-2.18c-4.07-.74-5.56-1.85-5.56-4.23s2.15-4.26,5.65-4.26c3.07,0,4.88,1.08,5.68,3.4l-1.95,1.14a3.49,3.49,0,0,0-3.73-2.55c-1.92,0-3.36,1-3.36,2.07,0,1.22,1,1.84,3.88,2.32,4,.66,5.45,1.85,5.45,4.18s-2.32,4.2-6,4.2C402.46,87.94,400,86.92,398.93,84.73Z"/>
    <path class="cls-1"
          d="M85.38,2.38l11.15.43L118.93,54H107L102.7,44H79.31L75.2,54,63.41,53.6ZM98.94,34.87,90.86,15.44,82.92,34.87Z"/>
    <path class="cls-1"
          d="M119.7,34.87c0-12.56,8.72-20.07,20.14-20.13a28,28,0,0,1,12.92,3.08l-2.42,8.63a21.19,21.19,0,0,0-9.84-2.66c-6.3,0-10.7,3.85-10.7,11.08S134.2,46,140.5,46a21.3,21.3,0,0,0,9.84-2.67L152.7,52a27.51,27.51,0,0,1-12.86,3.09C128.42,55.08,119.7,47.5,119.7,34.87Z"/>
    <path class="cls-1"
          d="M157.16,34.87c0-12.56,8.72-20.07,20.14-20.13a28,28,0,0,1,12.92,3.08l-2.43,8.63A21.16,21.16,0,0,0,178,23.79c-6.29,0-10.69,3.85-10.69,11.08S171.66,46,178,46a21.24,21.24,0,0,0,9.84-2.67L190.16,52a27.51,27.51,0,0,1-12.86,3.09C165.88,55.08,157.16,47.5,157.16,34.87Z"/>
    <path class="cls-1"
          d="M228.6,37.68H203.21c1.12,6.17,5.38,8.91,11.29,8.91a28.93,28.93,0,0,0,11.09-2.53l2.29,7.58a29.3,29.3,0,0,1-14.24,3.44c-12,0-20.73-7.65-20.73-20.21,0-11.86,7.61-20.13,18.64-20.13,10.56,0,17.25,7.43,17.25,19.08A25.42,25.42,0,0,1,228.6,37.68Zm-25.45-6.32h16.33c-.32-5-2.95-8.49-8.13-8.49C207.08,22.87,204,26,203.15,31.36Z"/>
    <path class="cls-1"
          d="M232.87,51l2.62-7.93a28.8,28.8,0,0,0,13.78,3.86c3.74,0,5.84-1.47,5.84-3.93s-3-3.3-7.09-4.21c-6.76-1.4-14-3.09-14-11.79,0-7.5,5.77-12.27,15.48-12.27a33.53,33.53,0,0,1,13.39,2.94L260,25.19a26.18,26.18,0,0,0-10.57-2.53c-3.74,0-6,1.13-6,3.58s3.21,3.23,7.08,4.14c7.09,1.54,14,3.65,14,11.58s-6,13.12-15.68,13.12A32.88,32.88,0,0,1,232.87,51Z"/>
    <path class="cls-1"
          d="M268.88,51l2.63-7.93a28.76,28.76,0,0,0,13.77,3.86c3.74,0,5.84-1.47,5.84-3.93s-2.95-3.3-7.08-4.21c-6.76-1.4-14-3.09-14-11.79,0-7.5,5.77-12.27,15.48-12.27a33.45,33.45,0,0,1,13.38,2.94L296,25.19a26.1,26.1,0,0,0-10.56-2.53c-3.74,0-6,1.13-6,3.58s3.22,3.23,7.09,4.14c7.09,1.54,14,3.65,14,11.58s-6,13.12-15.69,13.12A32.88,32.88,0,0,1,268.88,51Z"/>
    <path class="cls-1" d="M307.49,15.79h9.64V54h-9.64Z"/>
    <path class="cls-1"
          d="M337.17,48.06v6h-9.58V0h9.71V21.61a14.53,14.53,0,0,1,12.2-6.87c9.45,0,15.88,8.13,15.88,20.13S359,55.08,349.5,55.08A15,15,0,0,1,337.17,48.06Zm18.11-13.19c0-6.59-3.68-11.08-9-11.08s-9.05,4.49-9.05,11.08S341,46,346.29,46,355.28,41.54,355.28,34.87Z"/>
    <path class="cls-1" d="M372.59,15.79h9.65V54h-9.65Z"/>
    <path class="cls-1" d="M391.42,0h9.71V54h-9.71Z"/>
    <path class="cls-1" d="M410.38,15.79H420V54h-9.64Z"/>
    <path class="cls-1"
          d="M432.68,41.89V24.56h-6.82V15.79h6.82V8.47l9.78-2.42v9.74h8.77v8.77h-8.84l.07,16.49c0,3.43,1.9,5,5.18,5a18.68,18.68,0,0,0,7.09-1.41v9a26.38,26.38,0,0,1-8.66,1.47C437.54,55.08,432.62,50.24,432.68,41.89Z"/>
    <path class="cls-1" d="M497.37,15.79,476.83,68.06h-10.5l5.78-13.82L456.82,15.79h10.63l9.71,26.52,9.64-26.52Z"/>
    <circle class="cls-1" cx="376.8" cy="6.05" r="5.51"/>
    <circle class="cls-1" cx="415.2" cy="6.05" r="5.51"/>
    <circle class="cls-1" cx="312.09" cy="6.05" r="5.51"/>
    <path class="cls-2"
          d="M44.46,18.9a18.37,18.37,0,0,0-36.74,0,12.24,12.24,0,0,0,.08,1.72A18.38,18.38,0,0,1,36.74,33.91,18.39,18.39,0,0,0,44.46,18.9Z"/>
    <path class="cls-3"
          d="M7.76,20.65a18.37,18.37,0,1,0,29,15,12.38,12.38,0,0,0-.08-1.72A18.36,18.36,0,0,1,7.76,20.65Z"/>
    <path class="cls-1"
          d="M18.37,17.25a18.21,18.21,0,0,0-10.64,3.4,18.36,18.36,0,0,0,29,13.26A18.36,18.36,0,0,0,18.37,17.25Z"/>
</svg>